{
	"asset":{
		"generator":"Khronos glTF Blender I/O v3.6.28",
		"version":"2.0"
	},
	"scene":0,
	"scenes":[
		{
			"name":"Scene",
			"nodes":[
				0,
				1
			]
		}
	],
	"nodes":[
		{
			"mesh":0,
			"name":"Face",
			"translation":[
				0,
				1,
				0
			]
		},
		{
			"mesh":1,
			"name":"Eyes"
		}
	],
	"meshes":[
		{
			"name":"Icosphere",
			"primitives":[
				{
					"attributes":{
						"POSITION":0,
						"NORMAL":1,
						"TEXCOORD_0":2
					},
					"indices":3
				}
			]
		},
		{
			"name":"Icosphere.001",
			"primitives":[
				{
					"attributes":{
						"POSITION":4,
						"NORMAL":5,
						"TEXCOORD_0":6
					},
					"indices":7
				}
			]
		}
	],
	"accessors":[
		{
			"bufferView":0,
			"componentType":5126,
			"count":432,
			"max":[
				0.46281152963638306,
				-0.6450545191764832,
				0.22973938286304474
			],
			"min":[
				-0.5633344650268555,
				-1.2903164625167847,
				-0.05410140007734299
			],
			"type":"VEC3"
		},
		{
			"bufferView":1,
			"componentType":5126,
			"count":432,
			"type":"VEC3"
		},
		{
			"bufferView":2,
			"componentType":5126,
			"count":432,
			"type":"VEC2"
		},
		{
			"bufferView":3,
			"componentType":5123,
			"count":1608,
			"type":"SCALAR"
		},
		{
			"bufferView":4,
			"componentType":5126,
			"count":64,
			"max":[
				0.2057279795408249,
				0.028017167001962662,
				0.0666758269071579
			],
			"min":[
				-0.20398768782615662,
				-0.06457966566085815,
				-0.015460338443517685
			],
			"type":"VEC3"
		},
		{
			"bufferView":5,
			"componentType":5126,
			"count":64,
			"type":"VEC3"
		},
		{
			"bufferView":6,
			"componentType":5126,
			"count":64,
			"type":"VEC2"
		},
		{
			"bufferView":7,
			"componentType":5123,
			"count":120,
			"type":"SCALAR"
		}
	],
	"bufferViews":[
		{
			"buffer":0,
			"byteLength":5184,
			"byteOffset":0,
			"target":34962
		},
		{
			"buffer":0,
			"byteLength":5184,
			"byteOffset":5184,
			"target":34962
		},
		{
			"buffer":0,
			"byteLength":3456,
			"byteOffset":10368,
			"target":34962
		},
		{
			"buffer":0,
			"byteLength":3216,
			"byteOffset":13824,
			"target":34963
		},
		{
			"buffer":0,
			"byteLength":768,
			"byteOffset":17040,
			"target":34962
		},
		{
			"buffer":0,
			"byteLength":768,
			"byteOffset":17808,
			"target":34962
		},
		{
			"buffer":0,
			"byteLength":512,
			"byteOffset":18576,
			"target":34962
		},
		{
			"buffer":0,
			"byteLength":240,
			"byteOffset":19088,
			"target":34963
		}
	],
	"buffers":[
		{
			"byteLength":19328,
			"uri":"Face.bin"
		}
	]
}
