{
	"asset":{
		"generator":"Khronos glTF Blender I/O v3.6.28",
		"version":"2.0"
	},
	"scene":0,
	"scenes":[
		{
			"name":"Scene",
			"nodes":[
				0,
				1
			]
		}
	],
	"nodes":[
		{
			"mesh":0,
			"name":"Handle",
			"translation":[
				0,
				1.1689587831497192,
				0
			]
		},
		{
			"mesh":1,
			"name":"Head",
			"translation":[
				0,
				1.1689587831497192,
				0
			]
		}
	],
	"meshes":[
		{
			"name":"Cylinder.001",
			"primitives":[
				{
					"attributes":{
						"POSITION":0,
						"NORMAL":1,
						"TEXCOORD_0":2
					},
					"indices":3
				}
			]
		},
		{
			"name":"Cylinder.002",
			"primitives":[
				{
					"attributes":{
						"POSITION":4,
						"NORMAL":5,
						"TEXCOORD_0":6
					},
					"indices":7
				}
			]
		}
	],
	"accessors":[
		{
			"bufferView":0,
			"componentType":5126,
			"count":54,
			"max":[
				0.06592082977294922,
				-0.6704890727996826,
				0.07381594181060791
			],
			"min":[
				-0.06592082977294922,
				-1.8499778509140015,
				-0.054720088839530945
			],
			"type":"VEC3"
		},
		{
			"bufferView":1,
			"componentType":5126,
			"count":54,
			"type":"VEC3"
		},
		{
			"bufferView":2,
			"componentType":5126,
			"count":54,
			"type":"VEC2"
		},
		{
			"bufferView":3,
			"componentType":5123,
			"count":156,
			"type":"SCALAR"
		},
		{
			"bufferView":4,
			"componentType":5126,
			"count":103,
			"max":[
				0.6080703735351562,
				-0.6518775224685669,
				0.1827186793088913
			],
			"min":[
				-0.5355146527290344,
				-0.7869133949279785,
				-0.15042242407798767
			],
			"type":"VEC3"
		},
		{
			"bufferView":5,
			"componentType":5126,
			"count":103,
			"type":"VEC3"
		},
		{
			"bufferView":6,
			"componentType":5126,
			"count":103,
			"type":"VEC2"
		},
		{
			"bufferView":7,
			"componentType":5123,
			"count":276,
			"type":"SCALAR"
		}
	],
	"bufferViews":[
		{
			"buffer":0,
			"byteLength":648,
			"byteOffset":0,
			"target":34962
		},
		{
			"buffer":0,
			"byteLength":648,
			"byteOffset":648,
			"target":34962
		},
		{
			"buffer":0,
			"byteLength":432,
			"byteOffset":1296,
			"target":34962
		},
		{
			"buffer":0,
			"byteLength":312,
			"byteOffset":1728,
			"target":34963
		},
		{
			"buffer":0,
			"byteLength":1236,
			"byteOffset":2040,
			"target":34962
		},
		{
			"buffer":0,
			"byteLength":1236,
			"byteOffset":3276,
			"target":34962
		},
		{
			"buffer":0,
			"byteLength":824,
			"byteOffset":4512,
			"target":34962
		},
		{
			"buffer":0,
			"byteLength":552,
			"byteOffset":5336,
			"target":34963
		}
	],
	"buffers":[
		{
			"byteLength":5888,
			"uri":"Pickaxe.bin"
		}
	]
}
