{
	"asset":{
		"generator":"Khronos glTF Blender I/O v3.6.28",
		"version":"2.0"
	},
	"extensionsUsed":[
		"KHR_materials_specular",
		"KHR_materials_ior"
	],
	"scene":0,
	"scenes":[
		{
			"name":"Scene",
			"nodes":[
				0
			]
		}
	],
	"nodes":[
		{
			"mesh":0,
			"name":"Cube"
		}
	],
	"materials":[
		{
			"doubleSided":true,
			"extensions":{
				"KHR_materials_specular":{
					"specularColorFactor":[
						0,
						0,
						0
					]
				},
				"KHR_materials_ior":{
					"ior":1.4500000476837158
				}
			},
			"name":"Material",
			"pbrMetallicRoughness":{
				"baseColorTexture":{
					"index":0
				},
				"metallicFactor":0,
				"roughnessFactor":0.5
			}
		}
	],
	"meshes":[
		{
			"name":"Cube",
			"primitives":[
				{
					"attributes":{
						"POSITION":0,
						"NORMAL":1,
						"TEXCOORD_0":2
					},
					"indices":3,
					"material":0
				}
			]
		}
	],
	"textures":[
		{
			"sampler":0,
			"source":0
		}
	],
	"images":[
		{
			"mimeType":"image/png",
			"name":"Stone_07-512x512",
			"uri":"Stone_07-512x512.png"
		}
	],
	"accessors":[
		{
			"bufferView":0,
			"componentType":5126,
			"count":2315,
			"max":[
				3.357252836227417,
				3.2550582885742188,
				3.5223262310028076
			],
			"min":[
				-3.820836305618286,
				-0.19497783482074738,
				-3.7821476459503174
			],
			"type":"VEC3"
		},
		{
			"bufferView":1,
			"componentType":5126,
			"count":2315,
			"type":"VEC3"
		},
		{
			"bufferView":2,
			"componentType":5126,
			"count":2315,
			"type":"VEC2"
		},
		{
			"bufferView":3,
			"componentType":5123,
			"count":2328,
			"type":"SCALAR"
		}
	],
	"bufferViews":[
		{
			"buffer":0,
			"byteLength":27780,
			"byteOffset":0,
			"target":34962
		},
		{
			"buffer":0,
			"byteLength":27780,
			"byteOffset":27780,
			"target":34962
		},
		{
			"buffer":0,
			"byteLength":18520,
			"byteOffset":55560,
			"target":34962
		},
		{
			"buffer":0,
			"byteLength":4656,
			"byteOffset":74080,
			"target":34963
		}
	],
	"samplers":[
		{
			"magFilter":9729,
			"minFilter":9987
		}
	],
	"buffers":[
		{
			"byteLength":78736,
			"uri":"PileOfRocks.bin"
		}
	]
}
