{
	"asset":{
		"generator":"Khronos glTF Blender I/O v3.6.28",
		"version":"2.0"
	},
	"scene":0,
	"scenes":[
		{
			"name":"Scene",
			"nodes":[
				0,
				1,
				2,
				3,
				4,
				5,
				6,
				7,
				8,
				9,
				10,
				11,
				12,
				13
			]
		}
	],
	"nodes":[
		{
			"mesh":0,
			"name":"Cave",
			"rotation":[
				0,
				0,
				0.7071068286895752,
				0.7071068286895752
			],
			"scale":[
				2.2703006267547607,
				2.2703006267547607,
				2.2703006267547607
			],
			"translation":[
				0,
				1.9501534700393677,
				0.5556924939155579
			]
		},
		{
			"mesh":1,
			"name":"Rock3",
			"rotation":[
				0.2453850507736206,
				-0.11316505819559097,
				-0.961116373538971,
				0.056878428906202316
			],
			"translation":[
				48.87656021118164,
				0.3607543706893921,
				5.142292022705078
			]
		},
		{
			"mesh":2,
			"name":"Rock1",
			"rotation":[
				-0.7488372325897217,
				-0.03866167366504669,
				-0.6419419646263123,
				0.1601831465959549
			],
			"translation":[
				48.42318344116211,
				0.260820209980011,
				7.568656921386719
			]
		},
		{
			"mesh":3,
			"name":"Rock2",
			"rotation":[
				0.6401605606079102,
				0.39175787568092346,
				0.03432788327336311,
				0.6599559783935547
			],
			"translation":[
				51.0335807800293,
				-1.6172189712524414,
				2.4584062099456787
			]
		},
		{
			"mesh":4,
			"name":"Rock4",
			"rotation":[
				0.6415486335754395,
				0.6392024755477905,
				-0.3718661665916443,
				0.20384091138839722
			],
			"translation":[
				48.15373992919922,
				0.04652374982833862,
				8.762015342712402
			]
		},
		{
			"mesh":5,
			"name":"Rock5",
			"rotation":[
				0.7435316443443298,
				0.4495764970779419,
				-0.004194232635200024,
				0.49499908089637756
			],
			"translation":[
				50.82282638549805,
				0.20396041870117188,
				3.806609630584717
			]
		},
		{
			"mesh":6,
			"name":"Rock6",
			"rotation":[
				0.8010810017585754,
				0.4059293866157532,
				0.06417632848024368,
				0.43516892194747925
			],
			"translation":[
				47.12925338745117,
				-1.1143232583999634,
				6.168195724487305
			]
		},
		{
			"mesh":7,
			"name":"Rock7",
			"rotation":[
				-0.03721221908926964,
				-0.4151967167854309,
				0.3505677878856659,
				0.8386472463607788
			],
			"translation":[
				47.68007278442383,
				-1.8373106718063354,
				9.79953384399414
			]
		},
		{
			"mesh":8,
			"name":"Water",
			"rotation":[
				0,
				0,
				1,
				7.549790126404332e-08
			],
			"scale":[
				-19.736679077148438,
				-19.736679077148438,
				-19.736679077148438
			],
			"translation":[
				54.87895965576172,
				-1.379226803779602,
				6.948779582977295
			]
		},
		{
			"mesh":9,
			"name":"Rock8",
			"rotation":[
				-0.26866966485977173,
				-0.7373918890953064,
				-0.557365894317627,
				0.27094852924346924
			],
			"translation":[
				58.5910758972168,
				-2.2086920738220215,
				7.786037445068359
			]
		},
		{
			"mesh":10,
			"name":"Rock9",
			"rotation":[
				0.8039267063140869,
				0.06622354686260223,
				0.255056768655777,
				0.5331628322601318
			],
			"translation":[
				48.43083953857422,
				-1.1021618843078613,
				3.30956768989563
			]
		},
		{
			"mesh":11,
			"name":"Rock10",
			"rotation":[
				0.3492092490196228,
				0.7271429896354675,
				0.5889602899551392,
				0.049414318054914474
			],
			"translation":[
				65.22821807861328,
				8.588981628417969,
				13.488980293273926
			]
		},
		{
			"mesh":12,
			"name":"Rock11",
			"rotation":[
				-0.5940648913383484,
				-0.5374839901924133,
				-0.2630499005317688,
				0.5375897288322449
			],
			"translation":[
				56.07505416870117,
				11.207391738891602,
				-0.9861390590667725
			]
		},
		{
			"mesh":13,
			"name":"GodRay",
			"translation":[
				58.08345413208008,
				16.33789825439453,
				12.586999893188477
			]
		}
	],
	"meshes":[
		{
			"name":"Cylinder.001",
			"primitives":[
				{
					"attributes":{
						"POSITION":0,
						"NORMAL":1,
						"TEXCOORD_0":2
					},
					"indices":3
				}
			]
		},
		{
			"name":"Icosphere",
			"primitives":[
				{
					"attributes":{
						"COLOR_0":4,
						"POSITION":5,
						"NORMAL":6,
						"TEXCOORD_0":7
					},
					"indices":8
				}
			]
		},
		{
			"name":"Icosphere.001",
			"primitives":[
				{
					"attributes":{
						"COLOR_0":9,
						"POSITION":10,
						"NORMAL":11,
						"TEXCOORD_0":12
					},
					"indices":13
				}
			]
		},
		{
			"name":"Icosphere.002",
			"primitives":[
				{
					"attributes":{
						"COLOR_0":14,
						"POSITION":15,
						"NORMAL":16,
						"TEXCOORD_0":17
					},
					"indices":18
				}
			]
		},
		{
			"name":"Icosphere.003",
			"primitives":[
				{
					"attributes":{
						"COLOR_0":19,
						"POSITION":20,
						"NORMAL":21,
						"TEXCOORD_0":22
					},
					"indices":23
				}
			]
		},
		{
			"name":"Icosphere.004",
			"primitives":[
				{
					"attributes":{
						"COLOR_0":24,
						"POSITION":25,
						"NORMAL":26,
						"TEXCOORD_0":27
					},
					"indices":28
				}
			]
		},
		{
			"name":"Icosphere.005",
			"primitives":[
				{
					"attributes":{
						"COLOR_0":29,
						"POSITION":30,
						"NORMAL":31,
						"TEXCOORD_0":32
					},
					"indices":33
				}
			]
		},
		{
			"name":"Icosphere.006",
			"primitives":[
				{
					"attributes":{
						"COLOR_0":34,
						"POSITION":35,
						"NORMAL":36,
						"TEXCOORD_0":37
					},
					"indices":33
				}
			]
		},
		{
			"name":"Plane",
			"primitives":[
				{
					"attributes":{
						"POSITION":38,
						"NORMAL":39,
						"TEXCOORD_0":40
					},
					"indices":41
				}
			]
		},
		{
			"name":"Icosphere.007",
			"primitives":[
				{
					"attributes":{
						"COLOR_0":42,
						"POSITION":43,
						"NORMAL":44,
						"TEXCOORD_0":45
					},
					"indices":33
				}
			]
		},
		{
			"name":"Icosphere.008",
			"primitives":[
				{
					"attributes":{
						"COLOR_0":46,
						"POSITION":47,
						"NORMAL":48,
						"TEXCOORD_0":49
					},
					"indices":50
				}
			]
		},
		{
			"name":"Icosphere.009",
			"primitives":[
				{
					"attributes":{
						"COLOR_0":51,
						"POSITION":52,
						"NORMAL":53,
						"TEXCOORD_0":54
					},
					"indices":55
				}
			]
		},
		{
			"name":"Icosphere.010",
			"primitives":[
				{
					"attributes":{
						"COLOR_0":56,
						"POSITION":57,
						"NORMAL":58,
						"TEXCOORD_0":59
					},
					"indices":60
				}
			]
		},
		{
			"name":"Cone",
			"primitives":[
				{
					"attributes":{
						"POSITION":61,
						"NORMAL":62,
						"TEXCOORD_0":63
					},
					"indices":64
				}
			]
		}
	],
	"accessors":[
		{
			"bufferView":0,
			"componentType":5126,
			"count":4058,
			"max":[
				7.190734386444092,
				1.087702751159668,
				9.930015563964844
			],
			"min":[
				-1.832531452178955,
				-31.304046630859375,
				-3.571953773498535
			],
			"type":"VEC3"
		},
		{
			"bufferView":1,
			"componentType":5126,
			"count":4058,
			"type":"VEC3"
		},
		{
			"bufferView":2,
			"componentType":5126,
			"count":4058,
			"type":"VEC2"
		},
		{
			"bufferView":3,
			"componentType":5123,
			"count":24231,
			"type":"SCALAR"
		},
		{
			"bufferView":4,
			"componentType":5123,
			"count":59,
			"normalized":true,
			"type":"VEC4"
		},
		{
			"bufferView":5,
			"componentType":5126,
			"count":59,
			"max":[
				1.0958600044250488,
				1.011443853378296,
				1.3058291673660278
			],
			"min":[
				-2.0970187187194824,
				-1.3749111890792847,
				-1.3804391622543335
			],
			"type":"VEC3"
		},
		{
			"bufferView":6,
			"componentType":5126,
			"count":59,
			"type":"VEC3"
		},
		{
			"bufferView":7,
			"componentType":5126,
			"count":59,
			"type":"VEC2"
		},
		{
			"bufferView":8,
			"componentType":5123,
			"count":180,
			"type":"SCALAR"
		},
		{
			"bufferView":9,
			"componentType":5123,
			"count":67,
			"normalized":true,
			"type":"VEC4"
		},
		{
			"bufferView":10,
			"componentType":5126,
			"count":67,
			"max":[
				1.0958600044250488,
				1.011443853378296,
				1.3058291673660278
			],
			"min":[
				-2.0970187187194824,
				-1.3749111890792847,
				-1.3804391622543335
			],
			"type":"VEC3"
		},
		{
			"bufferView":11,
			"componentType":5126,
			"count":67,
			"type":"VEC3"
		},
		{
			"bufferView":12,
			"componentType":5126,
			"count":67,
			"type":"VEC2"
		},
		{
			"bufferView":13,
			"componentType":5123,
			"count":180,
			"type":"SCALAR"
		},
		{
			"bufferView":14,
			"componentType":5123,
			"count":59,
			"normalized":true,
			"type":"VEC4"
		},
		{
			"bufferView":15,
			"componentType":5126,
			"count":59,
			"max":[
				1.0958600044250488,
				1.011443853378296,
				1.3058291673660278
			],
			"min":[
				-2.0970187187194824,
				-1.3749111890792847,
				-1.3804391622543335
			],
			"type":"VEC3"
		},
		{
			"bufferView":16,
			"componentType":5126,
			"count":59,
			"type":"VEC3"
		},
		{
			"bufferView":17,
			"componentType":5126,
			"count":59,
			"type":"VEC2"
		},
		{
			"bufferView":18,
			"componentType":5123,
			"count":180,
			"type":"SCALAR"
		},
		{
			"bufferView":19,
			"componentType":5123,
			"count":68,
			"normalized":true,
			"type":"VEC4"
		},
		{
			"bufferView":20,
			"componentType":5126,
			"count":68,
			"max":[
				1.103738784790039,
				1.2662781476974487,
				1.4341013431549072
			],
			"min":[
				-2.261044502258301,
				-1.3749111890792847,
				-1.713200330734253
			],
			"type":"VEC3"
		},
		{
			"bufferView":21,
			"componentType":5126,
			"count":68,
			"type":"VEC3"
		},
		{
			"bufferView":22,
			"componentType":5126,
			"count":68,
			"type":"VEC2"
		},
		{
			"bufferView":23,
			"componentType":5123,
			"count":204,
			"type":"SCALAR"
		},
		{
			"bufferView":24,
			"componentType":5123,
			"count":63,
			"normalized":true,
			"type":"VEC4"
		},
		{
			"bufferView":25,
			"componentType":5126,
			"count":63,
			"max":[
				1.103738784790039,
				1.2662781476974487,
				1.4341013431549072
			],
			"min":[
				-2.261044502258301,
				-1.3749111890792847,
				-1.713200330734253
			],
			"type":"VEC3"
		},
		{
			"bufferView":26,
			"componentType":5126,
			"count":63,
			"type":"VEC3"
		},
		{
			"bufferView":27,
			"componentType":5126,
			"count":63,
			"type":"VEC2"
		},
		{
			"bufferView":28,
			"componentType":5123,
			"count":204,
			"type":"SCALAR"
		},
		{
			"bufferView":29,
			"componentType":5123,
			"count":78,
			"normalized":true,
			"type":"VEC4"
		},
		{
			"bufferView":30,
			"componentType":5126,
			"count":78,
			"max":[
				2.310422897338867,
				2.1917037963867188,
				2.2783806324005127
			],
			"min":[
				-2.4624435901641846,
				-1.6120344400405884,
				-1.6063560247421265
			],
			"type":"VEC3"
		},
		{
			"bufferView":31,
			"componentType":5126,
			"count":78,
			"type":"VEC3"
		},
		{
			"bufferView":32,
			"componentType":5126,
			"count":78,
			"type":"VEC2"
		},
		{
			"bufferView":33,
			"componentType":5123,
			"count":312,
			"type":"SCALAR"
		},
		{
			"bufferView":34,
			"componentType":5123,
			"count":78,
			"normalized":true,
			"type":"VEC4"
		},
		{
			"bufferView":35,
			"componentType":5126,
			"count":78,
			"max":[
				2.310422897338867,
				2.1917037963867188,
				2.2783806324005127
			],
			"min":[
				-2.4624435901641846,
				-1.6120344400405884,
				-1.6063560247421265
			],
			"type":"VEC3"
		},
		{
			"bufferView":36,
			"componentType":5126,
			"count":78,
			"type":"VEC3"
		},
		{
			"bufferView":37,
			"componentType":5126,
			"count":78,
			"type":"VEC2"
		},
		{
			"bufferView":38,
			"componentType":5126,
			"count":4,
			"max":[
				1,
				0,
				1
			],
			"min":[
				-1,
				0,
				-1
			],
			"type":"VEC3"
		},
		{
			"bufferView":39,
			"componentType":5126,
			"count":4,
			"type":"VEC3"
		},
		{
			"bufferView":40,
			"componentType":5126,
			"count":4,
			"type":"VEC2"
		},
		{
			"bufferView":41,
			"componentType":5123,
			"count":6,
			"type":"SCALAR"
		},
		{
			"bufferView":42,
			"componentType":5123,
			"count":78,
			"normalized":true,
			"type":"VEC4"
		},
		{
			"bufferView":43,
			"componentType":5126,
			"count":78,
			"max":[
				2.310422897338867,
				2.1917037963867188,
				2.2783806324005127
			],
			"min":[
				-2.4624435901641846,
				-1.6120344400405884,
				-1.6063560247421265
			],
			"type":"VEC3"
		},
		{
			"bufferView":44,
			"componentType":5126,
			"count":78,
			"type":"VEC3"
		},
		{
			"bufferView":45,
			"componentType":5126,
			"count":78,
			"type":"VEC2"
		},
		{
			"bufferView":46,
			"componentType":5123,
			"count":111,
			"normalized":true,
			"type":"VEC4"
		},
		{
			"bufferView":47,
			"componentType":5126,
			"count":111,
			"max":[
				2.3107383251190186,
				2.186896562576294,
				2.2778398990631104
			],
			"min":[
				-2.140223264694214,
				-1.5412400960922241,
				-1.6274765729904175
			],
			"type":"VEC3"
		},
		{
			"bufferView":48,
			"componentType":5126,
			"count":111,
			"type":"VEC3"
		},
		{
			"bufferView":49,
			"componentType":5126,
			"count":111,
			"type":"VEC2"
		},
		{
			"bufferView":50,
			"componentType":5123,
			"count":312,
			"type":"SCALAR"
		},
		{
			"bufferView":51,
			"componentType":5123,
			"count":176,
			"normalized":true,
			"type":"VEC4"
		},
		{
			"bufferView":52,
			"componentType":5126,
			"count":176,
			"max":[
				8.150876998901367,
				3.8440818786621094,
				3.569472074508667
			],
			"min":[
				-6.237795829772949,
				-4.788580894470215,
				-4.359046459197998
			],
			"type":"VEC3"
		},
		{
			"bufferView":53,
			"componentType":5126,
			"count":176,
			"type":"VEC3"
		},
		{
			"bufferView":54,
			"componentType":5126,
			"count":176,
			"type":"VEC2"
		},
		{
			"bufferView":55,
			"componentType":5123,
			"count":1044,
			"type":"SCALAR"
		},
		{
			"bufferView":56,
			"componentType":5123,
			"count":211,
			"normalized":true,
			"type":"VEC4"
		},
		{
			"bufferView":57,
			"componentType":5126,
			"count":211,
			"max":[
				7.8395185470581055,
				4.557405948638916,
				3.652858018875122
			],
			"min":[
				-7.115261554718018,
				-3.8194401264190674,
				-6.305549144744873
			],
			"type":"VEC3"
		},
		{
			"bufferView":58,
			"componentType":5126,
			"count":211,
			"type":"VEC3"
		},
		{
			"bufferView":59,
			"componentType":5126,
			"count":211,
			"type":"VEC2"
		},
		{
			"bufferView":60,
			"componentType":5123,
			"count":1254,
			"type":"SCALAR"
		},
		{
			"bufferView":61,
			"componentType":5126,
			"count":66,
			"max":[
				3.0357584953308105,
				-0.14595307409763336,
				1.9292323589324951
			],
			"min":[
				-11.056723594665527,
				-18.218061447143555,
				-12.422968864440918
			],
			"type":"VEC3"
		},
		{
			"bufferView":62,
			"componentType":5126,
			"count":66,
			"type":"VEC3"
		},
		{
			"bufferView":63,
			"componentType":5126,
			"count":66,
			"type":"VEC2"
		},
		{
			"bufferView":64,
			"componentType":5123,
			"count":192,
			"type":"SCALAR"
		}
	],
	"bufferViews":[
		{
			"buffer":0,
			"byteLength":48696,
			"byteOffset":0,
			"target":34962
		},
		{
			"buffer":0,
			"byteLength":48696,
			"byteOffset":48696,
			"target":34962
		},
		{
			"buffer":0,
			"byteLength":32464,
			"byteOffset":97392,
			"target":34962
		},
		{
			"buffer":0,
			"byteLength":48462,
			"byteOffset":129856,
			"target":34963
		},
		{
			"buffer":0,
			"byteLength":472,
			"byteOffset":178320,
			"target":34962
		},
		{
			"buffer":0,
			"byteLength":708,
			"byteOffset":178792,
			"target":34962
		},
		{
			"buffer":0,
			"byteLength":708,
			"byteOffset":179500,
			"target":34962
		},
		{
			"buffer":0,
			"byteLength":472,
			"byteOffset":180208,
			"target":34962
		},
		{
			"buffer":0,
			"byteLength":360,
			"byteOffset":180680,
			"target":34963
		},
		{
			"buffer":0,
			"byteLength":536,
			"byteOffset":181040,
			"target":34962
		},
		{
			"buffer":0,
			"byteLength":804,
			"byteOffset":181576,
			"target":34962
		},
		{
			"buffer":0,
			"byteLength":804,
			"byteOffset":182380,
			"target":34962
		},
		{
			"buffer":0,
			"byteLength":536,
			"byteOffset":183184,
			"target":34962
		},
		{
			"buffer":0,
			"byteLength":360,
			"byteOffset":183720,
			"target":34963
		},
		{
			"buffer":0,
			"byteLength":472,
			"byteOffset":184080,
			"target":34962
		},
		{
			"buffer":0,
			"byteLength":708,
			"byteOffset":184552,
			"target":34962
		},
		{
			"buffer":0,
			"byteLength":708,
			"byteOffset":185260,
			"target":34962
		},
		{
			"buffer":0,
			"byteLength":472,
			"byteOffset":185968,
			"target":34962
		},
		{
			"buffer":0,
			"byteLength":360,
			"byteOffset":186440,
			"target":34963
		},
		{
			"buffer":0,
			"byteLength":544,
			"byteOffset":186800,
			"target":34962
		},
		{
			"buffer":0,
			"byteLength":816,
			"byteOffset":187344,
			"target":34962
		},
		{
			"buffer":0,
			"byteLength":816,
			"byteOffset":188160,
			"target":34962
		},
		{
			"buffer":0,
			"byteLength":544,
			"byteOffset":188976,
			"target":34962
		},
		{
			"buffer":0,
			"byteLength":408,
			"byteOffset":189520,
			"target":34963
		},
		{
			"buffer":0,
			"byteLength":504,
			"byteOffset":189928,
			"target":34962
		},
		{
			"buffer":0,
			"byteLength":756,
			"byteOffset":190432,
			"target":34962
		},
		{
			"buffer":0,
			"byteLength":756,
			"byteOffset":191188,
			"target":34962
		},
		{
			"buffer":0,
			"byteLength":504,
			"byteOffset":191944,
			"target":34962
		},
		{
			"buffer":0,
			"byteLength":408,
			"byteOffset":192448,
			"target":34963
		},
		{
			"buffer":0,
			"byteLength":624,
			"byteOffset":192856,
			"target":34962
		},
		{
			"buffer":0,
			"byteLength":936,
			"byteOffset":193480,
			"target":34962
		},
		{
			"buffer":0,
			"byteLength":936,
			"byteOffset":194416,
			"target":34962
		},
		{
			"buffer":0,
			"byteLength":624,
			"byteOffset":195352,
			"target":34962
		},
		{
			"buffer":0,
			"byteLength":624,
			"byteOffset":195976,
			"target":34963
		},
		{
			"buffer":0,
			"byteLength":624,
			"byteOffset":196600,
			"target":34962
		},
		{
			"buffer":0,
			"byteLength":936,
			"byteOffset":197224,
			"target":34962
		},
		{
			"buffer":0,
			"byteLength":936,
			"byteOffset":198160,
			"target":34962
		},
		{
			"buffer":0,
			"byteLength":624,
			"byteOffset":199096,
			"target":34962
		},
		{
			"buffer":0,
			"byteLength":48,
			"byteOffset":199720,
			"target":34962
		},
		{
			"buffer":0,
			"byteLength":48,
			"byteOffset":199768,
			"target":34962
		},
		{
			"buffer":0,
			"byteLength":32,
			"byteOffset":199816,
			"target":34962
		},
		{
			"buffer":0,
			"byteLength":12,
			"byteOffset":199848,
			"target":34963
		},
		{
			"buffer":0,
			"byteLength":624,
			"byteOffset":199860,
			"target":34962
		},
		{
			"buffer":0,
			"byteLength":936,
			"byteOffset":200484,
			"target":34962
		},
		{
			"buffer":0,
			"byteLength":936,
			"byteOffset":201420,
			"target":34962
		},
		{
			"buffer":0,
			"byteLength":624,
			"byteOffset":202356,
			"target":34962
		},
		{
			"buffer":0,
			"byteLength":888,
			"byteOffset":202980,
			"target":34962
		},
		{
			"buffer":0,
			"byteLength":1332,
			"byteOffset":203868,
			"target":34962
		},
		{
			"buffer":0,
			"byteLength":1332,
			"byteOffset":205200,
			"target":34962
		},
		{
			"buffer":0,
			"byteLength":888,
			"byteOffset":206532,
			"target":34962
		},
		{
			"buffer":0,
			"byteLength":624,
			"byteOffset":207420,
			"target":34963
		},
		{
			"buffer":0,
			"byteLength":1408,
			"byteOffset":208044,
			"target":34962
		},
		{
			"buffer":0,
			"byteLength":2112,
			"byteOffset":209452,
			"target":34962
		},
		{
			"buffer":0,
			"byteLength":2112,
			"byteOffset":211564,
			"target":34962
		},
		{
			"buffer":0,
			"byteLength":1408,
			"byteOffset":213676,
			"target":34962
		},
		{
			"buffer":0,
			"byteLength":2088,
			"byteOffset":215084,
			"target":34963
		},
		{
			"buffer":0,
			"byteLength":1688,
			"byteOffset":217172,
			"target":34962
		},
		{
			"buffer":0,
			"byteLength":2532,
			"byteOffset":218860,
			"target":34962
		},
		{
			"buffer":0,
			"byteLength":2532,
			"byteOffset":221392,
			"target":34962
		},
		{
			"buffer":0,
			"byteLength":1688,
			"byteOffset":223924,
			"target":34962
		},
		{
			"buffer":0,
			"byteLength":2508,
			"byteOffset":225612,
			"target":34963
		},
		{
			"buffer":0,
			"byteLength":792,
			"byteOffset":228120,
			"target":34962
		},
		{
			"buffer":0,
			"byteLength":792,
			"byteOffset":228912,
			"target":34962
		},
		{
			"buffer":0,
			"byteLength":528,
			"byteOffset":229704,
			"target":34962
		},
		{
			"buffer":0,
			"byteLength":384,
			"byteOffset":230232,
			"target":34963
		}
	],
	"buffers":[
		{
			"byteLength":230616,
			"uri":"ScenicCave.bin"
		}
	]
}
