{
	"asset":{
		"generator":"Khronos glTF Blender I/O v3.6.28",
		"version":"2.0"
	},
	"scene":0,
	"scenes":[
		{
			"name":"Scene",
			"nodes":[
				0
			]
		}
	],
	"nodes":[
		{
			"mesh":0,
			"name":"Cube",
			"translation":[
				0,
				0.7441350817680359,
				0
			]
		}
	],
	"meshes":[
		{
			"name":"Cube.001",
			"primitives":[
				{
					"attributes":{
						"POSITION":0,
						"NORMAL":1,
						"TEXCOORD_0":2
					},
					"indices":3
				}
			]
		}
	],
	"accessors":[
		{
			"bufferView":0,
			"componentType":5126,
			"count":275,
			"max":[
				0.36000001430511475,
				0.022662650793790817,
				0.475373774766922
			],
			"min":[
				-0.36000001430511475,
				-0.7539418935775757,
				-0.4703812897205353
			],
			"type":"VEC3"
		},
		{
			"bufferView":1,
			"componentType":5126,
			"count":275,
			"type":"VEC3"
		},
		{
			"bufferView":2,
			"componentType":5126,
			"count":275,
			"type":"VEC2"
		},
		{
			"bufferView":3,
			"componentType":5123,
			"count":642,
			"type":"SCALAR"
		}
	],
	"bufferViews":[
		{
			"buffer":0,
			"byteLength":3300,
			"byteOffset":0,
			"target":34962
		},
		{
			"buffer":0,
			"byteLength":3300,
			"byteOffset":3300,
			"target":34962
		},
		{
			"buffer":0,
			"byteLength":2200,
			"byteOffset":6600,
			"target":34962
		},
		{
			"buffer":0,
			"byteLength":1284,
			"byteOffset":8800,
			"target":34963
		}
	],
	"buffers":[
		{
			"byteLength":10084,
			"uri":"table.bin"
		}
	]
}
