{
	"asset":{
		"generator":"Khronos glTF Blender I/O v3.6.28",
		"version":"2.0"
	},
	"scene":0,
	"scenes":[
		{
			"name":"Scene",
			"nodes":[
				0,
				1,
				2
			]
		}
	],
	"nodes":[
		{
			"mesh":0,
			"name":"Stick"
		},
		{
			"mesh":1,
			"name":"Sign",
			"scale":[
				-0.03564596176147461,
				-0.03564596176147461,
				-0.03564596176147461
			],
			"translation":[
				0.017797593027353287,
				0.7967591285705566,
				0.046575333923101425
			]
		},
		{
			"mesh":2,
			"name":"Nail",
			"rotation":[
				0,
				0,
				-0.775233805179596,
				0.6316744089126587
			],
			"scale":[
				0.00651831878349185,
				0.00651831878349185,
				0.00651831878349185
			],
			"translation":[
				0.11039064079523087,
				0.8855549693107605,
				0
			]
		}
	],
	"materials":[
		{
			"doubleSided":true,
			"name":"Stick",
			"pbrMetallicRoughness":{
				"baseColorTexture":{
					"index":0
				},
				"metallicFactor":0,
				"roughnessFactor":0.5
			}
		},
		{
			"doubleSided":true,
			"name":"Board",
			"pbrMetallicRoughness":{
				"baseColorTexture":{
					"index":1
				},
				"metallicFactor":0,
				"roughnessFactor":0.5
			}
		}
	],
	"meshes":[
		{
			"name":"Cylinder.001",
			"primitives":[
				{
					"attributes":{
						"POSITION":0,
						"NORMAL":1,
						"TEXCOORD_0":2
					},
					"indices":3,
					"material":0
				}
			]
		},
		{
			"name":"Cube.002",
			"primitives":[
				{
					"attributes":{
						"POSITION":4,
						"NORMAL":5,
						"TEXCOORD_0":6
					},
					"indices":7,
					"material":1
				}
			]
		},
		{
			"name":"Cylinder.002",
			"primitives":[
				{
					"attributes":{
						"POSITION":8,
						"NORMAL":9,
						"TEXCOORD_0":10
					},
					"indices":11
				}
			]
		}
	],
	"textures":[
		{
			"sampler":0,
			"source":0
		},
		{
			"sampler":0,
			"source":1
		}
	],
	"images":[
		{
			"mimeType":"image/png",
			"name":"StickTexture",
			"uri":"StickTexture.png"
		},
		{
			"mimeType":"image/png",
			"name":"WoodSignTexture",
			"uri":"WoodSignTexture.png"
		}
	],
	"accessors":[
		{
			"bufferView":0,
			"componentType":5126,
			"count":145,
			"max":[
				0.03767060115933418,
				1.0039767026901245,
				0.1161332055926323
			],
			"min":[
				-0.06177347153425217,
				-3.116577863693237e-05,
				-0.050092775374650955
			],
			"type":"VEC3"
		},
		{
			"bufferView":1,
			"componentType":5126,
			"count":145,
			"type":"VEC3"
		},
		{
			"bufferView":2,
			"componentType":5126,
			"count":145,
			"type":"VEC2"
		},
		{
			"bufferView":3,
			"componentType":5123,
			"count":648,
			"type":"SCALAR"
		},
		{
			"bufferView":4,
			"componentType":5126,
			"count":1020,
			"max":[
				0.954937756061554,
				1.9940831661224365,
				9.295032501220703
			],
			"min":[
				-1.474389910697937,
				-7.462758541107178,
				-8.87236213684082
			],
			"type":"VEC3"
		},
		{
			"bufferView":5,
			"componentType":5126,
			"count":1020,
			"type":"VEC3"
		},
		{
			"bufferView":6,
			"componentType":5126,
			"count":1020,
			"type":"VEC2"
		},
		{
			"bufferView":7,
			"componentType":5123,
			"count":5328,
			"type":"SCALAR"
		},
		{
			"bufferView":8,
			"componentType":5126,
			"count":108,
			"max":[
				-6.612444877624512,
				-9.423521041870117,
				0.9431228041648865
			],
			"min":[
				-8.245981216430664,
				-11.928040504455566,
				-0.943122923374176
			],
			"type":"VEC3"
		},
		{
			"bufferView":9,
			"componentType":5126,
			"count":108,
			"type":"VEC3"
		},
		{
			"bufferView":10,
			"componentType":5126,
			"count":108,
			"type":"VEC2"
		},
		{
			"bufferView":11,
			"componentType":5123,
			"count":204,
			"type":"SCALAR"
		}
	],
	"bufferViews":[
		{
			"buffer":0,
			"byteLength":1740,
			"byteOffset":0,
			"target":34962
		},
		{
			"buffer":0,
			"byteLength":1740,
			"byteOffset":1740,
			"target":34962
		},
		{
			"buffer":0,
			"byteLength":1160,
			"byteOffset":3480,
			"target":34962
		},
		{
			"buffer":0,
			"byteLength":1296,
			"byteOffset":4640,
			"target":34963
		},
		{
			"buffer":0,
			"byteLength":12240,
			"byteOffset":5936,
			"target":34962
		},
		{
			"buffer":0,
			"byteLength":12240,
			"byteOffset":18176,
			"target":34962
		},
		{
			"buffer":0,
			"byteLength":8160,
			"byteOffset":30416,
			"target":34962
		},
		{
			"buffer":0,
			"byteLength":10656,
			"byteOffset":38576,
			"target":34963
		},
		{
			"buffer":0,
			"byteLength":1296,
			"byteOffset":49232,
			"target":34962
		},
		{
			"buffer":0,
			"byteLength":1296,
			"byteOffset":50528,
			"target":34962
		},
		{
			"buffer":0,
			"byteLength":864,
			"byteOffset":51824,
			"target":34962
		},
		{
			"buffer":0,
			"byteLength":408,
			"byteOffset":52688,
			"target":34963
		}
	],
	"samplers":[
		{
			"magFilter":9729,
			"minFilter":9987
		}
	],
	"buffers":[
		{
			"byteLength":53096,
			"uri":"WoodSign.bin"
		}
	]
}
